<?xml version="1.0" encoding="utf-8"?>
<!-- Generator: Adobe Illustrator 16.0.0, SVG Export Plug-In . SVG Version: 6.00 Build 0)  -->
<!DOCTYPE svg PUBLIC "-//W3C//DTD SVG 1.1//EN" "http://www.w3.org/Graphics/SVG/1.1/DTD/svg11.dtd">
<svg version="1.1" id="Layer_1" xmlns="http://www.w3.org/2000/svg" xmlns:xlink="http://www.w3.org/1999/xlink" x="0px" y="0px"
	 width="1000px" height="236.963px" viewBox="0 0 1000 236.963" enable-background="new 0 0 1000 236.963" xml:space="preserve">
<g>
	<g>
		<polygon fill="#0075C9" points="292.096,88.184 333.462,88.184 333.462,99.536 304.677,99.536 304.677,111.739 332.686,111.739 
			332.686,122.934 304.677,122.934 304.677,145.051 292.096,145.051 		"/>
		<path fill="#0075C9" d="M382.517,126.169h-12.76v18.882h-12.256V88.184h27.462c17.874,0,22.17,7.677,22.17,18.557
			c0,7.834-2.531,15.06-11.973,18.053l11.289,20.258h-13.441L382.517,126.169z M384.574,115.352c6.837,0,9.894-1.68,9.894-8.139
			c0-6.595-2.898-8.274-10.04-8.274h-14.671v16.414H384.574z"/>
		<path fill="#0075C9" d="M448.729,87.795h12.76l22.926,57.256h-13.033l-3.686-9.368h-25.782l-3.676,9.368h-12.287L448.729,87.795z
			 M463.705,125.318l-8.905-22.643l-8.905,22.643H463.705z"/>
		<polygon fill="#0075C9" points="506.531,88.184 522.967,88.184 538.383,127.009 553.8,88.184 570.161,88.184 570.161,145.051 
			557.854,145.051 557.854,107.066 542.604,145.051 533.091,145.051 517.884,107.286 517.884,145.051 506.531,145.051 		"/>
		<polygon fill="#0075C9" points="596.941,88.184 639.684,88.184 639.684,99.536 609.522,99.536 609.522,110.595 638.928,110.595 
			638.928,121.559 609.522,121.559 609.522,134.15 639.978,134.15 639.978,145.051 596.941,145.051 		"/>
		<path fill="#0075C9" d="M660.1,138.445l6.301-9.053c6.049,4.064,13.105,6.06,20.394,6.06c11.153,0,13.212-2.153,13.212-6.899
			c0-4.694-4.747-5.619-13.506-6.837c-15.186-2.152-23.104-4.915-23.104-17.254c0-12.665,7.666-17.202,23.713-17.202
			c11.594,0,18.651,2.688,23.021,5.608l-6.764,9.745c-3.612-2.384-10.271-4.368-16.383-4.368c-8.906,0-11.068,1.765-11.068,5.891
			c0,4.6,4.683,5.461,13.715,6.752c13.653,2.006,22.81,4.222,22.81,17.034c0,11.5-6.301,17.97-25.246,17.97
			C675.915,145.892,666.526,143.202,660.1,138.445"/>
		<polygon fill="#0075C9" points="748.986,99.536 729.242,99.536 729.242,88.184 781.289,88.184 781.289,99.536 761.63,99.536 
			761.63,145.051 748.986,145.051 		"/>
		<path fill="#0075C9" d="M798.471,116.57c0-21.34,11.972-29.321,30.076-29.321c18.105,0,30.162,7.981,30.162,29.321
			c0,21.424-12.057,29.405-30.162,29.405C810.442,145.975,798.471,137.994,798.471,116.57 M845.98,116.801
			c0-11.122-4.369-18.021-17.434-18.021c-13.043,0-17.412,6.9-17.412,18.021c0,11.121,4.369,18.115,17.412,18.115
			C841.611,134.916,845.98,127.922,845.98,116.801"/>
		<path fill="#0075C9" d="M907.395,126.169h-12.771v18.882h-12.245V88.184h27.452c17.896,0,22.18,7.677,22.18,18.557
			c0,7.834-2.521,15.06-11.972,18.053l11.3,20.258h-13.442L907.395,126.169z M909.453,115.352c6.806,0,9.893-1.68,9.893-8.139
			c0-6.595-2.898-8.274-10.039-8.274h-14.683v16.414H909.453z"/>
		<polygon fill="#0075C9" points="956.963,88.184 999.705,88.184 999.705,99.536 969.544,99.536 969.544,110.595 998.929,110.595 
			998.929,121.559 969.544,121.559 969.544,134.15 1000,134.15 1000,145.051 956.963,145.051 		"/>
		<path fill="#0075C9" d="M121.568,0L121.568,0h-0.2h-0.188C33.899,0.641,1.249,38.867,0,118.481
			c1.249,79.604,33.899,117.852,121.18,118.481h0.188h0.2c87.68-0.63,120.329-38.878,121.579-118.481
			C241.897,38.867,209.248,0.641,121.568,0 M164.563,78.176c2.384-2.384,19.975-20.772,26.947-25.142
			c6.963-4.411,12.066,4.61,10.491,6.154c-1.586,1.597-29.636,25.73-31.484,26.948C166.862,88.53,162.146,80.549,164.563,78.176
			 M145.155,188.424h-4.537c0,0-4.474,0-6.427-4.643c-8.328-19.785-21.875-52.739-24.238-53.727
			c-2.563-1.051-19.313-3.161-30.046-4.517v45.642h16.404v11.174H42.133v-9.662c3.276-0.42,5.618-1.05,7.036-1.849
			c1.418-0.839,2.563-2.247,3.444-4.2c0.578-1.303,1.008-3.276,1.25-5.881c0.23-2.521,0.356-11.342,0.356-11.342V59.125
			c22.097-8.065,61.541-12.928,62.507-6.71c1.229,8.023,1.029,27.21-13.274,27.21c-5.093,0-8.789-5.062-10.963-12.697
			c-2.133,0.777-12.582,4.411-12.582,4.411v40.348c8.927-0.988,20.258-2.174,24.154-4.106c10.407-4.926,28.964-40.611,36.735-59.063
			h4.358V188.424z M195.165,162.169c-9.179-2.205-28.607-10.103-30.687-12.077c-2.09-2.038-3.192-14.072,3.287-12.654
			c2.92,0.64,30.329,13.2,33.742,14.964C204.931,154.166,204.322,164.332,195.165,162.169 M208.995,115.152
			c-5.104,1.848-41.271,8.433-44.002,8.433s-5.083-11.321-0.367-13.316c3.896-1.638,35.874-8.496,38.729-8.496
			C206.202,101.773,214.109,113.325,208.995,115.152"/>
	</g>
</g>
</svg>
